# This file uses centimeters as units for non-parametric coordinates.

mtllib MSH_Diamante.mtl
g default
v -0.197945 0.342261 -7.578485
v -0.613480 0.818438 -7.994018
v 0.032224 0.818438 -8.261477
v 0.032225 0.342261 -7.673823
v 0.677927 0.818438 -7.994018
v 0.262394 0.342261 -7.578485
v 0.945386 0.818438 -7.348315
v 0.357734 0.342261 -7.348315
v 0.677927 0.818438 -6.702611
v 0.262394 0.342261 -7.118145
v 0.032224 0.818438 -6.435152
v 0.032225 0.342261 -7.022806
v -0.613480 0.818438 -6.702611
v -0.197945 0.342261 -7.118145
v -0.880940 0.818438 -7.348315
v -0.293284 0.342261 -7.348315
v -0.524673 0.969999 -7.905210
v 0.032224 0.969999 -8.135884
v 0.589119 0.969999 -7.905210
v 0.819793 0.969999 -7.348315
v 0.589119 0.969999 -6.791418
v 0.032224 0.969999 -6.560744
v -0.524673 0.969999 -6.791418
v -0.755346 0.969999 -7.348315
v -0.403281 1.163895 -7.783818
v 0.032224 1.101174 -7.348315
v 0.032224 1.163895 -7.964210
v 0.467727 1.163895 -7.783818
v 0.648119 1.163895 -7.348315
v 0.467727 1.163895 -6.912810
v 0.032224 1.163895 -6.732419
v -0.403281 1.163895 -6.912810
v -0.583672 1.163895 -7.348315
v 0.032225 0.117517 -7.348313
vt 0.354310 0.221375
vt 0.376661 0.568352
vt 0.364755 0.812372
vt 0.368532 0.286169
vt 0.510585 0.978195
vt 0.340917 0.347048
vt 0.722024 0.998008
vt 0.283548 0.373235
vt 0.887231 0.869664
vt 0.227626 0.352313
vt 0.920053 0.662970
vt 0.204657 0.297217
vt 0.800601 0.487155
vt 0.228774 0.238975
vt 0.584660 0.439458
vt 0.288749 0.209274
vt 0.447398 0.609801
vt 0.423970 0.793179
vt 0.537416 0.926634
vt 0.706367 0.943594
vt 0.838849 0.841059
vt 0.864799 0.675504
vt 0.768366 0.535588
vt 0.596531 0.500632
vt 0.510146 0.646852
vt 0.647968 0.728261
vt 0.493561 0.771618
vt 0.570101 0.865554
vt 0.688014 0.878502
vt 0.781054 0.806892
vt 0.798895 0.690833
vt 0.730627 0.593740
vt 0.611330 0.572034
vt 0.262950 0.314941
vt 0.281237 0.001992
vt 0.491553 0.078762
vt 0.079512 0.095491
vt 0.001836 0.299761
vt 0.088449 0.496922
vt 0.288636 0.576061
vt 0.489828 0.490946
vt 0.575884 0.286015
vn -0.427101 -0.796975 -0.427102
vn -0.609531 -0.506896 -0.609531
vn -0.000000 -0.506895 -0.862008
vn 0.000000 -0.784015 -0.620743
vn 0.609531 -0.506894 -0.609532
vn 0.427101 -0.796974 -0.427102
vn 0.862008 -0.506895 0.000000
vn 0.620743 -0.784014 0.000000
vn 0.609531 -0.506895 0.609532
vn 0.427102 -0.796974 0.427102
vn -0.000000 -0.506896 0.862007
vn 0.000000 -0.784014 0.620743
vn -0.609531 -0.506897 0.609531
vn -0.427101 -0.796975 0.427101
vn -0.862007 -0.506897 0.000000
vn -0.620741 -0.784015 -0.000000
vn -0.537916 0.649071 -0.537916
vn -0.000000 0.649070 -0.760728
vn 0.537916 0.649071 -0.537916
vn 0.760728 0.649071 0.000000
vn 0.537916 0.649071 0.537916
vn 0.000000 0.649070 0.760729
vn -0.537916 0.649071 0.537916
vn -0.760728 0.649071 0.000000
vn -0.320582 0.891322 -0.320583
vn -0.000000 1.000000 0.000000
vn 0.000000 0.891322 -0.453372
vn 0.320582 0.891322 -0.320582
vn 0.453372 0.891322 -0.000000
vn 0.320582 0.891322 0.320582
vn 0.000000 0.891322 0.453371
vn -0.320582 0.891322 0.320582
vn -0.453372 0.891322 0.000000
vn -0.000000 -1.000000 0.000001
s 1
g MSH_Diamante
usemtl initialShadingGroup
f 1/1/1 2/36/2 3/42/3 4/4/4
f 4/4/4 3/42/3 5/41/5 6/6/6
f 6/6/6 5/41/5 7/40/7 8/8/8
f 8/8/8 7/40/7 9/39/9 10/10/10
f 10/10/10 9/39/9 11/38/11 12/12/12
f 12/12/12 11/38/11 13/37/13 14/14/14
f 14/14/14 13/37/13 15/35/15 16/16/16
f 16/16/16 15/35/15 2/36/2 1/1/1
f 2/2/2 17/17/17 18/18/18 3/3/3
f 3/3/3 18/18/18 19/19/19 5/5/5
f 5/5/5 19/19/19 20/20/20 7/7/7
f 7/7/7 20/20/20 21/21/21 9/9/9
f 9/9/9 21/21/21 22/22/22 11/11/11
f 11/11/11 22/22/22 23/23/23 13/13/13
f 13/13/13 23/23/23 24/24/24 15/15/15
f 15/15/15 24/24/24 17/17/17 2/2/2
f 25/25/25 26/26/26 27/27/27
f 27/27/27 26/26/26 28/28/28
f 28/28/28 26/26/26 29/29/29
f 29/29/29 26/26/26 30/30/30
f 30/30/30 26/26/26 31/31/31
f 31/31/31 26/26/26 32/32/32
f 32/32/32 26/26/26 33/33/33
f 33/33/33 26/26/26 25/25/25
f 17/17/17 25/25/25 27/27/27 18/18/18
f 18/18/18 27/27/27 28/28/28 19/19/19
f 19/19/19 28/28/28 29/29/29 20/20/20
f 20/20/20 29/29/29 30/30/30 21/21/21
f 21/21/21 30/30/30 31/31/31 22/22/22
f 22/22/22 31/31/31 32/32/32 23/23/23
f 23/23/23 32/32/32 33/33/33 24/24/24
f 24/24/24 33/33/33 25/25/25 17/17/17
f 14/14/14 34/34/34 10/10/10 12/12/12
f 1/1/1 34/34/34 14/14/14 16/16/16
f 4/4/4 6/6/6 34/34/34 1/1/1
f 10/10/10 34/34/34 6/6/6 8/8/8
