# This file uses centimeters as units for non-parametric coordinates.

mtllib MSH_Pantie.mtl
g default
v -2.438497 -0.013193 -6.454576
v -1.941366 -0.013193 -6.454576
v -1.313614 -0.013193 -6.334840
v 0.032552 -0.013193 -4.767390
v 1.378718 -0.013193 -6.334840
v 2.006470 -0.013193 -6.454576
v 2.503601 -0.013193 -6.454576
v -2.438497 0.155102 -6.454576
v -1.941366 0.155102 -6.454576
v -1.313614 0.155102 -6.334840
v 0.032552 0.155102 -4.767390
v 1.378718 0.155102 -6.334840
v 2.006470 0.155102 -6.454576
v 2.503601 0.155102 -6.454576
v -2.438497 0.155102 -7.094848
v -1.941366 0.155102 -7.094848
v -1.313614 0.155102 -7.094848
v 0.032552 0.155102 -7.094848
v 1.378718 0.155102 -7.094848
v 2.006470 0.155102 -7.094848
v 2.503601 0.155102 -7.094848
v -2.438497 -0.013193 -7.094848
v -1.941366 -0.013193 -7.094848
v -1.313614 -0.013193 -7.094848
v 0.032552 -0.013193 -7.094848
v 1.378718 -0.013193 -7.094848
v 2.006470 -0.013193 -7.094848
v 2.503601 -0.013193 -7.094848
v 0.330330 -0.013193 -4.874052
v 0.482422 -0.013193 -7.094848
v 0.482422 0.155102 -7.094848
v 0.330330 0.155102 -4.874052
v 0.032552 -0.005972 -4.767390
v -0.265226 -0.013193 -4.874052
v -0.265226 0.155102 -4.874052
v -0.417318 0.155102 -7.094848
v -0.417318 -0.013193 -7.094848
v -0.786975 -0.013193 -5.764772
v -0.841400 -0.013193 -7.094848
v -0.841400 0.155102 -7.094848
v -0.786975 0.155102 -5.764772
v 0.852079 -0.013193 -5.764772
v 0.906504 -0.013193 -7.094848
v 0.906504 0.155102 -7.094848
v 0.852079 0.155102 -5.764772
v 0.330330 0.058952 -4.874052
v 0.852079 0.058952 -5.764772
v 1.378718 0.058952 -6.334840
v 2.006470 0.058952 -6.454576
v 2.503601 0.058952 -6.454576
v 2.503601 0.058952 -7.094848
v 2.006470 0.058952 -7.094848
v 1.378718 0.058952 -7.094848
v 0.906504 0.058952 -7.094848
v 0.482422 0.058952 -7.094848
v 0.032552 0.058952 -7.094848
v -0.417318 0.058952 -7.094848
v -0.841400 0.058952 -7.094848
v -1.313614 0.058952 -7.094848
v -1.941366 0.058952 -7.094848
v -2.438497 0.058952 -7.094848
v -2.438497 0.058952 -6.454576
v -1.941366 0.058952 -6.454576
v -1.313614 0.058952 -6.334840
v -0.786975 0.058952 -5.764772
v -0.265226 0.058952 -4.874052
v 0.032552 0.059334 -4.767390
vt 0.664797 0.288693
vt 0.664797 0.342568
vt 0.253345 0.614637
vt 0.209053 0.665784
vt 0.618631 0.428733
vt 0.244157 0.558535
vt 0.034288 0.407894
vt 0.388590 0.590158
vt 0.396202 0.596930
vt 0.379154 0.640985
vt 0.378085 0.641015
vt 0.018561 0.366701
vt 0.164997 0.253454
vt 0.520074 0.767108
vt 0.609594 0.839441
vt 0.249512 0.179186
vt 0.648340 0.927383
vt 0.274097 0.088502
vt 0.682389 1.004407
vt 0.283430 0.020465
vt 0.325215 0.654858
vt 0.277054 0.711207
vt 0.348161 0.565003
vt 0.347566 0.497616
vt 0.160475 0.483264
vt 0.348964 0.437825
vt 0.351854 0.249105
vt 0.353720 0.182806
vt 0.363763 0.096195
vt 0.366847 0.025615
vt 0.783297 0.366012
vt 0.775376 0.278069
vt 0.744499 0.449469
vt 0.723451 0.572259
vt 0.727788 0.513131
vt 0.736526 0.818003
vt 0.726899 0.755181
vt 0.762244 0.899363
vt 0.781282 0.971032
vt 0.768171 0.288858
vt 0.773281 0.363553
vt 0.675097 0.346131
vt 0.678033 0.295493
vt 0.734582 0.446493
vt 0.626599 0.433994
vt 0.530411 0.517037
vt 0.717608 0.511302
vt 0.713044 0.571722
vt 0.525500 0.758827
vt 0.716280 0.756568
vt 0.725894 0.820239
vt 0.617208 0.832923
vt 0.752179 0.901619
vt 0.657364 0.923388
vt 0.769025 0.965858
vt 0.686241 0.992090
vt 0.350026 0.373835
vt 0.351158 0.309378
vt 0.724019 0.696826
vt 0.721674 0.635145
vt 0.035424 0.325749
vt 0.711086 0.635506
vt 0.525186 0.508990
vt 0.713467 0.697795
vt 0.395604 0.684077
vt 0.025075 0.316933
vt 0.369744 0.641180
vt 0.006989 0.366857
vt 0.387967 0.691488
vt 0.023763 0.416606
vt 0.152986 0.493454
vt 0.227208 0.562225
vt 0.234272 0.615757
vt 0.189762 0.669562
vt 0.280327 0.725732
vt 0.336724 0.657813
vt 0.360607 0.566495
vt 0.360405 0.498978
vt 0.361821 0.438982
vt 0.362756 0.374320
vt 0.363910 0.309314
vt 0.364781 0.249017
vt 0.366877 0.184281
vt 0.376746 0.098355
vt 0.377276 0.012766
vt 0.272096 0.009188
vt 0.262355 0.084963
vt 0.238177 0.171681
vt 0.157731 0.243129
vn -0.789865 0.000000 0.613281
vn -0.105845 0.000000 0.994383
vn -0.014077 0.991116 0.132252
vn -0.187859 0.971305 0.145861
vn -0.512947 0.000000 0.858420
vn -0.056298 0.993959 0.094215
vn -0.073344 0.995486 0.060234
vn -0.772641 0.000000 0.634844
vn 0.000000 0.000000 1.000000
vn -0.000000 0.999066 0.043201
vn 0.088870 0.993999 0.063781
vn 0.812425 0.000000 0.583066
vn 0.512947 0.000000 0.858420
vn 0.056298 0.993959 0.094215
vn 0.105845 0.000000 0.994383
vn 0.014077 0.991116 0.132252
vn 0.789865 0.000000 0.613281
vn 0.187859 0.971305 0.145861
vn 0.000000 0.989968 -0.141291
vn -0.187859 0.971305 -0.145861
vn 0.000000 0.993907 -0.110223
vn 0.000000 0.997812 -0.066119
vn -0.088870 0.993999 0.063781
vn 0.000000 0.998686 -0.051251
vn 0.000000 0.997812 -0.066119
vn 0.000000 0.993907 -0.110223
vn 0.000000 0.989968 -0.141291
vn 0.187859 0.971305 -0.145861
vn 0.000000 0.000000 -1.000000
vn -0.789865 0.000000 -0.613281
vn 0.000000 0.000000 -1.000000
vn 0.000000 0.000000 -1.000000
vn 0.000000 0.000000 -1.000000
vn 0.000000 0.000000 -1.000000
vn 0.000000 0.000000 -1.000000
vn 0.000000 0.000000 -1.000000
vn 0.789865 0.000000 -0.613281
vn -0.142733 -0.983537 -0.110823
vn 0.000000 -0.994315 -0.106481
vn -0.010604 -0.994969 0.099619
vn -0.142733 -0.983537 0.110823
vn 0.000000 -0.996556 -0.082924
vn -0.042354 -0.996585 0.070880
vn -0.066857 -0.996608 0.047982
vn 0.000000 -0.998766 -0.049659
vn 0.000000 -0.999260 -0.038477
vn -0.055168 -0.997446 0.045361
vn 0.035100 -0.999066 0.025191
vn 0.000000 -0.999537 -0.030422
vn 0.000000 -0.996556 -0.082924
vn 0.042354 -0.996585 0.070880
vn 0.000000 -0.994315 -0.106481
vn 0.010604 -0.994969 0.099619
vn 0.142733 -0.983537 -0.110823
vn 0.142733 -0.983537 0.110823
vn 0.000000 0.998696 -0.051058
vn 0.000000 0.998686 -0.051251
vn 0.000000 0.000000 -1.000000
vn 0.000000 0.000000 -1.000000
vn 0.073344 0.995486 0.060234
vn 0.000000 -0.999659 -0.026104
vn 0.000000 -0.999754 0.022184
vn -0.812425 0.000000 0.583066
vn 0.000000 -0.999815 -0.019223
vn 0.028186 -0.999334 0.023176
vn 0.772640 0.000000 0.634844
vn 0.000000 0.000000 1.000000
s 1
g MSH_Pantie
usemtl initialShadingGroup
f 62/74/1 63/73/2 9/3/3 8/4/4
f 63/73/2 64/72/5 10/6/6 9/3/3
f 35/7/7 66/70/8 67/68/9 11/12/10
f 45/13/11 47/89/12 48/88/13 12/16/14
f 48/88/13 49/87/15 13/18/16 12/16/14
f 49/87/15 50/86/17 14/20/18 13/18/16
f 8/4/4 9/3/3 16/21/19 15/22/20
f 9/3/3 10/6/6 17/23/21 16/21/19
f 40/24/22 41/25/23 35/7/7 36/26/24
f 44/27/25 45/13/11 12/16/14 19/28/26
f 12/16/14 13/18/16 20/29/27 19/28/26
f 13/18/16 14/20/18 21/30/28 20/29/27
f 15/22/20 16/21/19 60/76/29 61/75/30
f 16/21/19 17/23/21 59/77/31 60/76/29
f 57/79/32 58/78/33 40/24/22 36/26/24
f 53/83/34 54/82/35 44/27/25 19/28/26
f 19/28/26 20/29/27 52/84/36 53/83/34
f 20/29/27 21/30/28 51/85/37 52/84/36
f 22/40/38 23/41/39 2/42/40 1/43/41
f 23/41/39 24/44/42 3/45/43 2/42/40
f 38/46/44 39/47/45 37/48/46 34/9/47
f 42/49/48 43/50/49 26/51/50 5/52/51
f 26/51/50 27/53/52 6/54/53 5/52/51
f 27/53/52 28/55/54 7/56/55 6/54/53
f 50/86/17 51/85/37 21/30/28 14/20/18
f 61/75/30 62/74/1 8/4/4 15/22/20
f 18/57/56 31/58/57 55/81/58 56/80/59
f 11/12/10 32/61/60 31/58/57 18/57/56
f 36/26/24 35/7/7 11/12/10 18/57/56
f 56/80/59 57/79/32 36/26/24 18/57/56
f 34/9/47 37/48/46 25/62/61 4/10/62
f 24/44/42 39/47/45 38/46/44 3/45/43
f 17/23/21 40/24/22 58/78/33 59/77/31
f 10/6/6 41/25/23 40/24/22 17/23/21
f 64/72/5 65/71/63 41/25/23 10/6/6
f 25/62/61 30/64/64 43/50/49 42/49/48 29/65/65 4/10/62
f 54/82/35 55/81/58 31/58/57 44/27/25
f 31/58/57 32/61/60 45/13/11 44/27/25
f 32/61/60 46/66/66 47/89/12 45/13/11
f 35/7/7 41/25/23 65/71/63 66/70/8
f 67/68/9 46/66/66 32/61/60 11/12/10
f 47/14/12 46/69/66 29/65/65 42/49/48
f 48/15/13 47/14/12 42/49/48 5/52/51
f 5/52/51 6/54/53 49/17/15 48/15/13
f 6/54/53 7/56/55 50/19/17 49/17/15
f 7/56/55 28/55/54 51/39/37 50/19/17
f 52/38/36 51/39/37 28/55/54 27/53/52
f 53/36/34 52/38/36 27/53/52 26/51/50
f 43/50/49 54/37/35 53/36/34 26/51/50
f 30/64/64 55/59/58 54/37/35 43/50/49
f 56/60/59 55/59/58 30/64/64 25/62/61
f 37/48/46 57/34/32 56/60/59 25/62/61
f 39/47/45 58/35/33 57/34/32 37/48/46
f 59/33/31 58/35/33 39/47/45 24/44/42
f 60/31/29 59/33/31 24/44/42 23/41/39
f 61/32/30 60/31/29 23/41/39 22/40/38
f 22/40/38 1/43/41 62/1/1 61/32/30
f 1/43/41 2/42/40 63/2/2 62/1/1
f 2/42/40 3/45/43 64/5/5 63/2/2
f 3/45/43 38/46/44 65/63/63 64/5/5
f 66/8/8 65/63/63 38/46/44 34/9/47
f 67/67/9 66/8/8 34/9/47 4/10/62 33/11/67
f 33/11/67 4/10/62 29/65/65 46/69/66 67/67/9
