# This file uses centimeters as units for non-parametric coordinates.

mtllib MSH_Joya.mtl
g default
v -0.623256 0.557275 -7.924354
v -0.643117 0.568316 -7.867487
v -0.695642 0.673503 -7.904737
v -0.650366 0.690659 -7.963917
v -0.695642 0.673503 -5.986971
v -0.643117 0.568316 -6.024740
v -0.623256 0.557275 -5.980641
v -0.650366 0.690659 -5.941077
v -0.553686 0.552765 -5.957223
v -0.553687 0.552765 -6.069486
v 0.042633 0.552765 -6.069486
v 0.042633 0.552765 -5.957223
v -0.553687 0.552765 -7.823358
v 0.042633 0.552765 -7.823358
v -0.553686 0.552765 -7.947771
v 0.042633 0.552765 -7.947771
v -0.583904 0.549148 -7.998206
v -0.609410 0.699116 -8.040776
v 0.042633 0.699116 -8.040776
v 0.042633 0.549148 -7.998206
v -0.477766 0.905498 -7.694985
v -0.477766 0.905498 -6.198868
v 0.042633 0.905498 -6.198868
v 0.042633 0.905498 -7.694985
v -0.609410 0.699116 -5.864218
v -0.583904 0.549148 -5.906788
v 0.042633 0.549148 -5.906788
v 0.042633 0.699116 -5.864218
v -0.632549 0.552765 -6.069486
v -0.591142 0.560499 -6.027514
v -0.632549 0.552765 -7.823358
v -0.591142 0.560499 -7.877480
v 0.042633 0.781222 -7.906973
v 0.042633 0.725620 -7.959717
v -0.566689 0.726003 -7.961213
v -0.545879 0.782312 -7.911233
v -0.570723 0.725247 -5.946876
v 0.042633 0.725247 -5.945317
v 0.042633 0.780160 -5.998132
v -0.557364 0.780160 -6.002569
v -0.608654 0.718124 -7.906579
v -0.593355 0.774746 -7.890787
v -0.609024 0.718009 -5.999115
v -0.594406 0.774420 -6.016202
v -0.649357 0.725247 -7.853367
v -0.629642 0.780160 -7.843320
v -0.638001 0.725247 -6.044768
v -0.597324 0.780160 -6.065499
v -0.487934 0.907649 -7.797539
v 0.042633 0.906560 -7.793783
v -0.498288 0.905498 -6.115225
v 0.042633 0.905498 -6.111314
v -0.563448 0.905498 -7.737679
v -0.530736 0.900083 -7.779516
v -0.534314 0.905498 -6.170693
v -0.531685 0.899757 -6.127242
v -0.660036 0.695499 -7.858810
v -0.616941 0.687450 -7.915136
v -0.660036 0.695499 -6.033538
v -0.616941 0.687450 -5.989858
v -0.577961 0.695499 -7.988288
v 0.042633 0.695499 -7.988288
v 0.042633 0.695499 -5.916705
v -0.577961 0.695499 -5.916705
v 0.708522 0.557275 -7.924354
v 0.735630 0.690659 -7.963917
v 0.780908 0.673503 -7.904737
v 0.728382 0.568316 -7.867487
v 0.780908 0.673503 -5.986971
v 0.735630 0.690659 -5.941077
v 0.708522 0.557275 -5.980641
v 0.728382 0.568316 -6.024740
v 0.638951 0.552765 -5.957223
v 0.638951 0.552765 -6.069486
v 0.638951 0.552765 -7.823358
v 0.638951 0.552765 -7.947771
v 0.669169 0.549148 -7.998206
v 0.694675 0.699116 -8.040776
v 0.563030 0.905498 -7.694985
v 0.563030 0.905498 -6.198868
v 0.694675 0.699116 -5.864218
v 0.669169 0.549148 -5.906788
v 0.717814 0.552765 -6.069486
v 0.676406 0.560499 -6.027514
v 0.717814 0.552765 -7.823358
v 0.676406 0.560499 -7.877480
v 0.631144 0.782312 -7.911233
v 0.651955 0.726003 -7.961213
v 0.655989 0.725247 -5.946876
v 0.642630 0.780160 -6.002569
v 0.678621 0.774746 -7.890787
v 0.693918 0.718124 -7.906579
v 0.694289 0.718009 -5.999115
v 0.679673 0.774420 -6.016202
v 0.714907 0.780160 -7.843320
v 0.734622 0.725247 -7.853367
v 0.682589 0.780160 -6.065499
v 0.723265 0.725247 -6.044768
v 0.573199 0.907649 -7.797539
v 0.583553 0.905498 -6.115225
v 0.648715 0.905498 -7.737679
v 0.616001 0.900083 -7.779516
v 0.619578 0.905498 -6.170693
v 0.616949 0.899757 -6.127242
v 0.745300 0.695499 -7.858810
v 0.702207 0.687450 -7.915136
v 0.745300 0.695499 -6.033538
v 0.702207 0.687450 -5.989858
v 0.663228 0.695499 -7.988288
v 0.663228 0.695499 -5.916705
vt 0.558610 0.531962
vt 0.549003 0.518159
vt 0.580479 0.507884
vt 0.588271 0.520480
vt 0.288288 0.102575
vt 0.269316 0.127795
vt 0.260756 0.118002
vt 0.280598 0.092794
vt 0.772052 0.696310
vt 0.756963 0.675991
vt 0.863787 0.596051
vt 0.878857 0.616168
vt 0.521868 0.362101
vt 0.628689 0.282086
vt 0.504955 0.339708
vt 0.612009 0.259780
vt 0.569763 0.546552
vt 0.592818 0.532005
vt 0.639948 0.631244
vt 0.616005 0.642748
vt 0.466837 0.583713
vt 0.313054 0.874775
vt 0.211887 0.822059
vt 0.366382 0.528599
vt 0.270724 0.084685
vt 0.249604 0.103396
vt 0.166235 0.029694
vt 0.184602 0.008948
vt 0.742864 0.686461
vt 0.755545 0.688964
vt 0.507849 0.372695
vt 0.507318 0.357700
vt 0.395610 0.471956
vt 0.404090 0.455270
vt 0.535520 0.533985
vt 0.519903 0.546392
vt 0.310766 0.950471
vt 0.175185 0.890338
vt 0.183761 0.874429
vt 0.314183 0.931554
vt 0.544937 0.556170
vt 0.528859 0.559091
vt 0.330786 0.945276
vt 0.325465 0.931339
vt 0.544102 0.579952
vt 0.531385 0.576117
vt 0.345062 0.934305
vt 0.334310 0.922341
vt 0.483429 0.567400
vt 0.377109 0.507948
vt 0.311030 0.892323
vt 0.202374 0.839805
vt 0.493552 0.583713
vt 0.491180 0.574232
vt 0.320570 0.886161
vt 0.317492 0.893416
vt 0.498595 0.367297
vt 0.494849 0.353207
vt 0.582518 0.491948
vt 0.598130 0.508713
vt 0.745524 0.696971
vt 0.304128 0.105787
vt 0.756296 0.702049
vt 0.295369 0.086939
vt 0.602709 0.531872
vt 0.648043 0.627401
vt 0.605232 0.250720
vt 0.492766 0.334619
vt 0.885643 0.625230
vt 0.773481 0.709445
vt 0.190774 0.001918
vt 0.273718 0.074844
vt 0.109285 0.184714
vt 0.143466 0.177527
vt 0.140963 0.194867
vt 0.111918 0.199228
vt 0.068688 0.644750
vt 0.066603 0.655928
vt 0.039798 0.643718
vt 0.042870 0.631939
vt 0.985803 0.536229
vt 0.970545 0.516034
vt 0.735509 0.202173
vt 0.718810 0.179663
vt 0.105544 0.164072
vt 0.075017 0.013102
vt 0.112572 0.005491
vt 0.142415 0.162115
vt 0.264125 0.477851
vt 0.112579 0.767108
vt 0.062081 0.666652
vt 0.025923 0.765510
vt 0.001992 0.756846
vt 0.036867 0.660695
vt 0.984556 0.505451
vt 0.983396 0.518316
vt 0.749604 0.191702
vt 0.735364 0.187017
vt 0.265811 0.417330
vt 0.266585 0.398109
vt 0.051388 0.810408
vt 0.065200 0.797283
vt 0.251446 0.417879
vt 0.244644 0.403767
vt 0.044960 0.791042
vt 0.059332 0.787878
vt 0.237500 0.425928
vt 0.227347 0.417680
vt 0.062009 0.775686
vt 0.046358 0.773411
vt 0.269168 0.457217
vt 0.099269 0.778434
vt 0.252606 0.461193
vt 0.260397 0.456240
vt 0.099148 0.767187
vt 0.094877 0.773704
vt 0.734517 0.173959
vt 0.747026 0.181303
vt 0.149252 0.207091
vt 0.159328 0.185247
vt 0.993892 0.510960
vt 0.080287 0.635651
vt 0.995745 0.522716
vt 0.080999 0.654483
vt 0.153741 0.154326
vt 0.126087 0.002489
vt 0.717380 0.166534
vt 0.998008 0.541298
vt 0.068792 0.673295
vt 0.033984 0.768461
vt 0.543768 0.526397
vt 0.555805 0.553883
vt 0.551108 0.582231
vt 0.351133 0.940735
vt 0.334320 0.954771
vt 0.308257 0.960991
vt 0.170465 0.899080
vt 0.044016 0.818205
vt 0.035232 0.793216
vt 0.037797 0.771948
vt 0.221659 0.413233
vt 0.240253 0.394257
vt 0.267705 0.387334
vt 0.408725 0.446090
vn -0.724357 -0.577745 -0.376189
vn -0.887310 -0.460927 -0.015086
vn -0.968790 -0.246664 -0.024534
vn -0.887010 0.096997 -0.451448
vn -0.967719 -0.250855 0.024328
vn -0.887529 -0.460481 0.015815
vn -0.699661 -0.593042 0.398467
vn -0.870672 0.118423 0.477396
vn -0.002825 -0.999564 -0.029379
vn -0.000346 -1.000000 0.000243
vn 0.000000 -1.000000 0.000000
vn 0.000000 -0.999744 -0.022610
vn -0.000381 -1.000000 -0.000242
vn 0.000000 -1.000000 -0.000000
vn -0.002775 -0.999615 0.027590
vn 0.000000 -0.999778 0.021051
vn -0.090358 -0.456676 -0.885033
vn -0.101035 -0.028939 -0.994462
vn 0.000000 0.065949 -0.997823
vn 0.000000 -0.526824 -0.849974
vn -0.000110 1.000000 0.000817
vn -0.000090 1.000000 0.000059
vn 0.000000 1.000000 -0.000000
vn -0.000000 1.000000 0.001012
vn -0.101034 -0.028942 0.994462
vn -0.090358 -0.456674 0.885033
vn 0.000000 -0.526822 0.849976
vn 0.000000 0.065945 0.997823
vn -0.271237 -0.962512 0.001393
vn -0.102380 -0.994062 0.036871
vn -0.270295 -0.962777 -0.001459
vn -0.104037 -0.993998 -0.033818
vn 0.000000 0.672016 -0.740537
vn -0.000000 0.675893 -0.737000
vn -0.058568 0.676987 -0.733661
vn -0.036277 0.678471 -0.733731
vn -0.057294 0.702265 0.709607
vn 0.000000 0.702984 0.711206
vn 0.000000 0.681046 0.732240
vn -0.037625 0.686889 0.725788
vn -0.695216 0.448838 -0.561444
vn -0.531934 0.623643 -0.572814
vn -0.703454 0.513285 0.491621
vn -0.634460 0.614928 0.468319
vn -0.876347 0.481488 -0.013593
vn -0.875531 0.482915 -0.015421
vn -0.874382 0.484812 0.020318
vn -0.881187 0.472362 0.019584
vn -0.014288 0.835784 -0.548872
vn 0.000000 0.859585 -0.510994
vn -0.017846 0.807455 0.589659
vn 0.000000 0.837614 0.546262
vn -0.784329 0.620331 0.004128
vn -0.368136 0.826621 -0.425646
vn -0.784450 0.619996 0.015612
vn -0.576668 0.750875 0.321934
vn -0.649891 0.759983 -0.008200
vn -0.404800 0.889350 -0.212587
vn -0.640120 0.768224 0.008807
vn -0.389073 0.896155 0.213371
vn -0.026585 0.981693 -0.188604
vn -0.000000 0.951440 -0.307833
vn 0.000000 0.954757 0.297388
vn -0.023727 0.980511 0.195028
vn 0.724358 -0.577742 -0.376191
vn 0.887009 0.096995 -0.451449
vn 0.968791 -0.246661 -0.024534
vn 0.887308 -0.460931 -0.015086
vn 0.967720 -0.250852 0.024328
vn 0.870673 0.118422 0.477394
vn 0.699663 -0.593040 0.398467
vn 0.887527 -0.460484 0.015815
vn 0.002825 -0.999564 -0.029379
vn 0.000346 -1.000000 0.000243
vn 0.000381 -1.000000 -0.000241
vn 0.002775 -0.999616 0.027590
vn 0.090358 -0.456676 -0.885032
vn 0.101035 -0.028937 -0.994462
vn 0.000110 1.000000 0.000817
vn 0.000090 1.000000 0.000059
vn 0.101034 -0.028940 0.994462
vn 0.090357 -0.456675 0.885033
vn 0.271233 -0.962513 0.001393
vn 0.102379 -0.994062 0.036870
vn 0.270291 -0.962778 -0.001459
vn 0.104036 -0.993999 -0.033817
vn 0.036276 0.678471 -0.733731
vn 0.058568 0.676988 -0.733660
vn 0.057294 0.702265 0.709606
vn 0.037625 0.686889 0.725788
vn 0.531933 0.623642 -0.572816
vn 0.695215 0.448842 -0.561442
vn 0.703462 0.513282 0.491612
vn 0.634471 0.614924 0.468311
vn 0.875535 0.482908 -0.015421
vn 0.876348 0.481486 -0.013593
vn 0.881191 0.472355 0.019584
vn 0.874383 0.484811 0.020318
vn 0.014288 0.835784 -0.548873
vn 0.017846 0.807454 0.589660
vn 0.784328 0.620333 0.004128
vn 0.368131 0.826623 -0.425645
vn 0.784449 0.619997 0.015612
vn 0.576669 0.750876 0.321927
vn 0.649881 0.759992 -0.008200
vn 0.404802 0.889349 -0.212587
vn 0.640110 0.768233 0.008806
vn 0.389077 0.896154 0.213371
vn 0.026586 0.981693 -0.188603
vn 0.023727 0.980510 0.195031
s 1
g MSH_Joya
usemtl initialShadingGroup
f 1/1/1 2/2/2 3/3/3 4/4/4
f 5/5/5 6/6/6 7/7/7 8/8/8
f 9/9/9 10/10/10 11/11/11 12/12/12
f 10/10/10 13/13/13 14/14/14 11/11/11
f 13/13/13 15/15/15 16/16/16 14/14/14
f 17/17/17 18/18/18 19/19/19 20/20/20
f 21/21/21 22/22/22 23/23/23 24/24/24
f 25/25/25 26/26/26 27/27/27 28/28/28
f 29/29/29 10/10/10 9/9/9 30/30/30
f 31/31/31 13/13/13 10/10/10 29/29/29
f 32/32/32 15/15/15 13/13/13 31/31/31
f 4/4/4 18/18/18 17/17/17 1/1/1
f 7/7/7 26/26/26 25/25/25 8/8/8
f 33/33/33 34/34/34 35/35/35 36/36/36
f 37/37/37 38/38/38 39/39/39 40/40/40
f 36/36/36 35/35/35 41/41/41 42/42/42
f 43/43/43 37/37/37 40/40/40 44/44/44
f 42/42/42 41/41/41 45/45/45 46/46/46
f 46/46/46 45/45/45 47/47/47 48/48/48
f 48/48/48 47/47/47 43/43/43 44/44/44
f 49/49/49 21/21/21 24/24/24 50/50/50
f 22/22/22 51/51/51 52/52/52 23/23/23
f 53/53/53 21/21/21 49/49/49 54/54/54
f 55/55/55 22/22/22 21/21/21 53/53/53
f 56/56/56 51/51/51 22/22/22 55/55/55
f 50/50/50 33/33/33 36/36/36 49/49/49
f 40/40/40 39/39/39 52/52/52 51/51/51
f 36/36/36 42/42/42 54/54/54 49/49/49
f 42/42/42 46/46/46 53/53/53 54/54/54
f 46/46/46 48/48/48 55/55/55 53/53/53
f 44/44/44 40/40/40 51/51/51 56/56/56
f 48/48/48 44/44/44 56/56/56 55/55/55
f 32/32/32 31/31/31 2/57/2 1/58/1
f 57/59/57 58/60/58 4/4/4 3/3/3
f 31/31/31 29/29/29 6/61/6 2/57/2
f 59/62/59 57/59/57 3/3/3 5/5/5
f 29/29/29 30/30/30 7/63/7 6/61/6
f 60/64/60 59/62/59 5/5/5 8/8/8
f 61/65/61 62/66/62 19/19/19 18/18/18
f 20/67/20 16/16/16 15/15/15 17/68/17
f 9/9/9 12/12/12 27/69/27 26/70/26
f 28/28/28 63/71/63 64/72/64 25/25/25
f 58/60/58 61/65/61 18/18/18 4/4/4
f 15/15/15 32/32/32 1/58/1 17/68/17
f 30/30/30 9/9/9 26/70/26 7/63/7
f 64/72/64 60/64/60 8/8/8 25/25/25
f 65/73/65 66/74/66 67/75/67 68/76/68
f 69/77/69 70/78/70 71/79/71 72/80/72
f 73/81/73 12/12/12 11/11/11 74/82/74
f 74/82/74 11/11/11 14/14/14 75/83/75
f 75/83/75 14/14/14 16/16/16 76/84/76
f 77/85/77 20/86/20 19/87/19 78/88/78
f 79/89/79 24/24/24 23/23/23 80/90/80
f 81/91/81 28/92/28 27/93/27 82/94/82
f 83/95/83 84/96/84 73/81/73 74/82/74
f 85/97/85 83/95/83 74/82/74 75/83/75
f 86/98/86 85/97/85 75/83/75 76/84/76
f 66/74/66 65/73/65 77/85/77 78/88/78
f 71/79/71 70/78/70 81/91/81 82/94/82
f 33/33/33 87/99/87 88/100/88 34/34/34
f 38/38/38 89/101/89 90/102/90 39/39/39
f 87/99/87 91/103/91 92/104/92 88/100/88
f 89/101/89 93/105/93 94/106/94 90/102/90
f 91/103/91 95/107/95 96/108/96 92/104/92
f 95/107/95 97/109/97 98/110/98 96/108/96
f 97/109/97 94/106/94 93/105/93 98/110/98
f 99/111/99 50/50/50 24/24/24 79/89/79
f 80/90/80 23/23/23 52/52/52 100/112/100
f 101/113/101 102/114/102 99/111/99 79/89/79
f 103/115/103 101/113/101 79/89/79 80/90/80
f 104/116/104 103/115/103 80/90/80 100/112/100
f 50/50/50 99/111/99 87/99/87 33/33/33
f 90/102/90 100/112/100 52/52/52 39/39/39
f 87/99/87 99/111/99 102/114/102 91/103/91
f 91/103/91 102/114/102 101/113/101 95/107/95
f 95/107/95 101/113/101 103/115/103 97/109/97
f 94/106/94 104/116/104 100/112/100 90/102/90
f 97/109/97 103/115/103 104/116/104 94/106/94
f 86/98/86 65/117/65 68/118/68 85/97/85
f 105/119/105 67/75/67 66/74/66 106/120/106
f 85/97/85 68/118/68 72/121/72 83/95/83
f 107/122/107 69/77/69 67/75/67 105/119/105
f 83/95/83 72/121/72 71/123/71 84/96/84
f 108/124/108 70/78/70 69/77/69 107/122/107
f 109/125/109 78/88/78 19/87/19 62/126/62
f 20/67/20 77/127/77 76/84/76 16/16/16
f 73/81/73 82/128/82 27/69/27 12/12/12
f 28/92/28 81/91/81 110/129/110 63/130/63
f 106/120/106 66/74/66 78/88/78 109/125/109
f 76/84/76 77/127/77 65/117/65 86/98/86
f 84/96/84 71/123/71 82/128/82 73/81/73
f 110/129/110 81/91/81 70/78/70 108/124/108
f 41/41/41 35/35/35 61/131/61 58/132/58
f 45/45/45 41/41/41 58/132/58 57/133/57
f 47/47/47 45/45/45 57/133/57 59/134/59
f 43/43/43 47/47/47 59/134/59 60/135/60
f 64/136/64 37/37/37 43/43/43 60/135/60
f 63/137/63 38/38/38 37/37/37 64/136/64
f 63/137/63 110/138/110 89/101/89 38/38/38
f 110/138/110 108/139/108 93/105/93 89/101/89
f 98/110/98 93/105/93 108/139/108 107/140/107
f 96/108/96 98/110/98 107/140/107 105/141/105
f 92/104/92 96/108/96 105/141/105 106/142/106
f 88/100/88 92/104/92 106/142/106 109/143/109
f 34/34/34 88/100/88 109/143/109 62/144/62
f 35/35/35 34/34/34 62/144/62 61/131/61
f 3/3/3 2/2/2 6/6/6 5/5/5
f 67/75/67 69/77/69 72/80/72 68/76/68
